PathFileType	4	(X/Y/Z)	32_2_25_p1_0-300.trc
DataRate	CameraRate	NumFrames	NumMarkers	Units	OrigDataRate	OrigDataStartFrame	OrigNumFrames
59.0	59.0	5	27	m	59.0	75	301
Frame#	Time	RHip			RKnee			RAnkle			RBigToe			RSmallToe			RHeel			LHip			LKnee			LAnkle			LBigToe			LSmallToe			LHeel			Neck			Head			Nose			RShoulder			RElbow			RWrist			RThumb			RIndex			RPinky			LShoulder			LElbow			LWrist			LThumb			LIndex			LPinky			
		X1	Y1	Z1	X2	Y2	Z2	X3	Y3	Z3	X4	Y4	Z4	X5	Y5	Z5	X6	Y6	Z6	X7	Y7	Z7	X8	Y8	Z8	X9	Y9	Z9	X10	Y10	Z10	X11	Y11	Z11	X12	Y12	Z12	X13	Y13	Z13	X14	Y14	Z14	X15	Y15	Z15	X16	Y16	Z16	X17	Y17	Z17	X18	Y18	Z18	X19	Y19	Z19	X20	Y20	Z20	X21	Y21	Z21	X22	Y22	Z22	X23	Y23	Z23	X24	Y24	Z24	X25	Y25	Z25	X26	Y26	Z26	X27	Y27	Z27	
75	1.271186440677966	0.3501779209369758	0.39329638949985934	1.0383277066616592	0.33811267141214674	0.4698132378460893	1.5060314941886543	0.3235850817829707	0.4824157206843972	1.9011932293550609	0.3165811711456871	0.3253799585080971	1.9185249521966161	0.37742542885816427	0.32901708932417867	1.907357929319114	0.30384949727982713	0.5702619179233449	1.9942789393723894	0.16501665631268017	0.42252019676614805	1.0616324102418444	0.16670081657456384	0.4618968704657295	1.5045547566293305	0.1444486031222486	0.5100596907738395	1.9369025500671055	0.1573187530184818	0.3135019190788578	1.910030354083199	0.11219656009139137	0.351646609622557	1.9163664715926796	0.1536565448924962	0.5325733908438403	1.982283500383527	0.24515553749297903	0.44390531991367244	0.5694173332839926	0.22069358745267004	0.319961021121208	0.3230102425473587	0.21685794894882113	0.27518914554937185	0.4718023163583173	0.3769319940075431	0.44538163667560043	0.602067027911923	0.4187269068316127	0.3322686657719498	0.7969962741653231	0.3259430694180917	0.2635686524859992	0.6015988048077794	0.27024419229825364	0.28772806002114615	0.5395991984445704	0.26931406381308814	0.25760046522400865	0.5415981433198219	0.2683795567102831	0.1570852058912973	0.5477508342137468	0.08877058117001309	0.4425787773641167	0.5983309349527725	0.05218285321423662	0.3227339634530781	0.7869912336306468	0.12194404112050233	0.3158354251145036	0.6190422632443854	0.18491525049723123	0.2948734114862627	0.5646130709650264	0.188694030983452	0.2852197266282106	0.5459519204182912	0.16167578759549722	0.25394343490875293	0.5768840541519705
76	1.2881355932203389	0.35014220637441873	0.39318626306369636	1.0383505210571458	0.3335011742064855	0.4582685727250302	1.5052774705022167	0.3236106378848045	0.4824743687701286	1.9011996917629495	0.3149688011359737	0.327722888360774	1.9196777894303239	0.37736225806886536	0.3288639995573677	1.9073741790830125	0.3039923170793007	0.5710972119167275	1.9947946480657766	0.16527460428951116	0.4213839973668721	1.0647288451563122	0.1666600916140213	0.46192212411601535	1.5046175142853027	0.14443375905999223	0.5100729271363103	1.9368010135373608	0.1565884250875439	0.3119326844287334	1.9046868444404554	0.11224160228434404	0.3514934913984478	1.9161748186173855	0.15366015100148664	0.5325968877868893	1.982309142511337	0.24521461662975202	0.44387247306937144	0.56947453272381	0.2206189597949441	0.3198988078557131	0.32296434413656205	0.21676856614717552	0.27527448472195787	0.47199183732026867	0.3810101752762152	0.44627933074929055	0.6020988783327582	0.4159149809547765	0.3244382645264388	0.7974460130167071	0.3262096090431379	0.26433493163525784	0.6049748042978991	0.269974319422648	0.2871676189198388	0.5371105058687969	0.2738381452066435	0.2710847133391146	0.5494569164803781	0.2682761649218491	0.15714858052330608	0.5476208880297061	0.08881546674140883	0.44258782635255983	0.598195643336879	0.05223466405033857	0.3226431797675495	0.7867039265333456	0.12680468263660688	0.3049973341586973	0.613804355019942	0.18488019132329211	0.29438491432859226	0.5646557288481266	0.1886771003943219	0.28479942790385643	0.5460693752132312	0.16195331709464303	0.2452672164227803	0.5752467749789768
77	1.305084745762712	0.35015577132539627	0.39318341094980264	1.0383834673929808	0.3334906928686223	0.45822413460500916	1.5052825784001473	0.3235340659676921	0.482491808450392	1.90128692585642	0.3149699251031143	0.3276873472347179	1.9197603231383071	0.3773319628352453	0.3288156569875099	1.9073772207268638	0.3038991185025983	0.5710499452965487	1.994767275261891	0.16496828745002817	0.42251583285238714	1.0616130231482908	0.16668033373913282	0.46188994735619326	1.504474100448756	0.14438370734022796	0.5099373047412817	1.9368911530060426	0.1573357180019744	0.31334849124428826	1.910008602035016	0.11229379442854276	0.35131126823303843	1.916208892656014	0.15355143524884998	0.5325083795492966	1.982270996954588	0.2452559098524634	0.44379329117201594	0.5695385482577211	0.22064927294361983	0.3200531097663363	0.3229595806618541	0.2166534392609447	0.2749704912248943	0.4719548982708456	0.38109601613955185	0.4462363615756371	0.6021022987601045	0.41870181805853945	0.3319977722343725	0.796923222087912	0.3259232855268749	0.2638436036732838	0.6015696012210475	0.2727916495086547	0.2951164349725526	0.5383760626195174	0.27394518713323496	0.2715941281239308	0.5495578290098887	0.26834715771691564	0.15696987741129773	0.5477823273687915	0.08879374018694897	0.4426748701063146	0.5981703103594529	0.04765010041933746	0.3337943208374986	0.7865161694049155	0.12630518538959107	0.305771576901028	0.6134356140586913	0.1849399201522908	0.2943123823796575	0.5650320538051844	0.18872086566990043	0.28489251626898265	0.5461253678272877	0.16515736910350007	0.2551497339962432	0.5768373320966927
78	1.3220338983050848	0.3501551332382025	0.393176360075533	1.0383607723438295	0.33350829549677496	0.4581590582701827	1.5052776142500575	0.32356143564392537	0.4823599396952114	1.9011119847894171	0.3149214459953193	0.3276952211414324	1.9196898909354145	0.3732188367782325	0.34236778684812913	1.9169650930277808	0.3039335928665223	0.5706696641564935	1.994495249749685	0.16492935287522198	0.42242217094312323	1.061552266643212	0.1667070152065993	0.46183095003374164	1.5045404402185452	0.14440865568194894	0.5100740136077171	1.9367848526681954	0.15733740781323927	0.31338420139890233	1.9098346100784522	0.11215375928126269	0.3516885697818616	1.9164054929571952	0.15363105564699833	0.5325516943428561	1.982289568520997	0.24521468105933047	0.4437982704013667	0.5694926724550534	0.22069905364887657	0.32015829712084	0.32282089429717903	0.2166799652392526	0.27484074019500127	0.4717504309432444	0.3807464601623913	0.4453145784722966	0.5982213470177387	0.4143211540953464	0.32866429577324735	0.7963906035679249	0.32563936040996355	0.27131025906730616	0.6026733224743879	0.2737078302259746	0.2908403258311164	0.537149763856252	0.2739805972252822	0.27173979746200794	0.5492444581053059	0.26805667690118185	0.15711020208935536	0.5476470008010184	0.08878646781114466	0.44245724519576746	0.5983532233291216	0.05222496759242777	0.32261750931042465	0.7864530611084564	0.12634275117431845	0.30566939803155324	0.6134394003552328	0.18493813280500196	0.294523925507734	0.564952654756988	0.18867975403693996	0.28517301842904696	0.5460770563416749	0.16493607326186246	0.2553203507384963	0.5769513170453059
79	1.3389830508474576	0.3501551966249815	0.39313206545560486	1.0383555798099253	0.33348840158220555	0.4583725891516566	1.5052972507946072	0.32361406619534744	0.4824195448856691	1.901117141681938	0.31550438246247403	0.3258992130603439	1.9233411844581847	0.37733094277077356	0.3289277850937404	1.9074924572659662	0.30397509809233564	0.5703991540113705	1.994271462160659	0.16491715873358567	0.4225374211643705	1.061692812855898	0.16592809957675167	0.46050115789437135	1.4993119753688025	0.1443935985178001	0.5100028531874846	1.9368746433703223	0.15732218981611065	0.31339362711502083	1.9097049009026752	0.10771744290379875	0.3666060543545355	1.9314611257648109	0.15477488068290404	0.5322360327847425	1.9769670126631915	0.24497044636934945	0.44447359971655365	0.5660705076869765	0.21306357600431602	0.33002900375194977	0.32401859759964097	0.21670831463346213	0.27498496950623075	0.47173537467454363	0.38076731337099307	0.4452217576095906	0.5981997940762459	0.41905199506738	0.33248841389776473	0.792501969994389	0.32927298272055616	0.2730342464661324	0.6031942854384086	0.27028142906814495	0.2877663630466187	0.5398035142835289	0.2692362459854336	0.25745787098013034	0.5414546735870021	0.2682394579633155	0.15713503811408358	0.5476382652877213	0.08882398806741171	0.44263692164507223	0.5982135860603275	0.0526131501760007	0.3228780594642359	0.7832409712194756	0.12671425943138892	0.30635707763438963	0.6173429325352122	0.18532852354501478	0.2952227978131941	0.5687018644221733	0.18885362231540762	0.2849842411494735	0.5464400254114405	0.16825876471305745	0.2566381361786108	0.5743763243857815
